<svg width="12" height="12" viewBox="0 0 12 12" fill="none" xmlns="http://www.w3.org/2000/svg">
<g clip-path="url(#clip0)">
<path d="M7.06065 0.439308C7.64643 1.02509 7.64643 1.97484 7.06065 2.56063C6.47487 3.14641 5.52512 3.14641 4.93934 2.56063C4.35355 1.97484 4.35355 1.02509 4.93934 0.439308C5.5251 -0.146477 6.47484 -0.146477 7.06065 0.439308Z" fill="#777777"/>
<path d="M7.06065 4.93931C7.64643 5.52509 7.64643 6.47484 7.06065 7.06062C6.47487 7.6464 5.52512 7.6464 4.93934 7.06062C4.35355 6.47484 4.35355 5.52509 4.93934 4.93931C5.5251 4.35352 6.47484 4.35352 7.06065 4.93931Z" fill="#777777"/>
<path d="M7.06065 9.43931C7.64643 10.0251 7.64643 10.9748 7.06065 11.5606C6.47487 12.1464 5.52512 12.1464 4.93934 11.5606C4.35355 10.9748 4.35355 10.0251 4.93934 9.43931C5.5251 8.85352 6.47484 8.85352 7.06065 9.43931Z" fill="#777777"/>
</g>
<defs>
<clipPath id="clip0">
<rect width="12" height="12" fill="white"/>
</clipPath>
</defs>
</svg>
