<svg width="10" height="10" viewBox="0 0 10 10" fill="none" xmlns="http://www.w3.org/2000/svg">
<path d="M9.24937 4.43202H5.54404V0.726604C5.54404 0.470987 5.33651 0.263458 5.08081 0.263458C4.82519 0.263458 4.61766 0.470987 4.61766 0.726604V4.43202H0.912242C0.656626 4.43202 0.449097 4.63955 0.449097 4.89517C0.449097 5.15087 0.656626 5.3584 0.912242 5.3584H4.61766V9.06373C4.61766 9.31943 4.82519 9.52696 5.08081 9.52696C5.33651 9.52696 5.54404 9.31943 5.54404 9.06373V5.3584H9.24937C9.50507 5.3584 9.7126 5.15087 9.7126 4.89517C9.7126 4.63955 9.50507 4.43202 9.24937 4.43202Z" fill="white"/>
</svg>
