<svg width="25" height="23" viewBox="0 0 25 23" fill="none" xmlns="http://www.w3.org/2000/svg">
<g clip-path="url(#clip0)">
<path d="M24.0235 10.6015H3.34191L6.76789 7.4649C7.15017 7.11487 7.15163 6.54603 6.77116 6.19433C6.39069 5.8426 5.77233 5.84129 5.39006 6.19128L0.287323 10.8631C0.286981 10.8634 0.286737 10.8637 0.286444 10.864C-0.0948545 11.214 -0.0960752 11.7847 0.286347 12.1359C0.286688 12.1362 0.286933 12.1365 0.287226 12.1368L5.38996 16.8086C5.77219 17.1586 6.39055 17.1574 6.77106 16.8056C7.15153 16.4539 7.15007 15.885 6.76779 15.535L3.34191 12.3984H24.0235C24.5628 12.3984 25 11.9962 25 11.5C25 11.0038 24.5628 10.6015 24.0235 10.6015Z" fill="#394C60"/>
</g>
<defs>
<clipPath id="clip0">
<rect width="25" height="23" fill="white"/>
</clipPath>
</defs>
</svg>
