<svg width="24" height="24" viewBox="0 0 24 24" fill="none" xmlns="http://www.w3.org/2000/svg">
<path d="M12 24C5.38312 24 0 18.6169 0 12C0 5.38312 5.38312 0 12 0C18.6169 0 24 5.38312 24 12C24 18.6169 18.6169 24 12 24ZM12 1.71423C6.32849 1.71423 1.71423 6.32849 1.71423 12C1.71423 17.6715 6.32849 22.2858 12 22.2858C17.6715 22.2858 22.2858 17.6715 22.2858 12C22.2858 6.32849 17.6715 1.71423 12 1.71423Z" fill="#242424"/>
<path d="M16.2855 17.1428C16.0662 17.1428 15.8468 17.0592 15.6795 16.8916L7.10811 8.32026C6.77321 7.98536 6.77321 7.443 7.10811 7.10828C7.44283 6.77357 7.98537 6.77338 8.32008 7.10828L16.8914 15.6796C17.2263 16.0145 17.2263 16.5569 16.8914 16.8916C16.7241 17.0592 16.5049 17.1428 16.2855 17.1428Z" fill="#242424"/>
<path d="M7.714 17.1429C7.49464 17.1429 7.27547 17.0592 7.10811 16.8917C6.77321 16.557 6.77321 16.0144 7.10811 15.6797L15.6795 7.10837C16.0144 6.77347 16.5567 6.77347 16.8914 7.10837C17.2262 7.44308 17.2263 7.98563 16.8914 8.32034L8.32008 16.8917C8.15273 17.0592 7.93336 17.1429 7.714 17.1429Z" fill="#242424"/>
</svg>
