<svg width="14" height="14" viewBox="0 0 14 14" fill="none" xmlns="http://www.w3.org/2000/svg">
<g clip-path="url(#clip0)">
<path d="M11.6554 1.02413H11.0409V0H10.0168V1.02413H3.25755V0H2.23343V1.02413H1.61895C0.771898 1.02413 0.0827637 1.71326 0.0827637 2.56031V11.5726C0.0827637 12.4197 0.771898 13.1088 1.61895 13.1088H11.6554C12.5024 13.1088 13.1916 12.4197 13.1916 11.5726V2.56031C13.1916 1.71326 12.5024 1.02413 11.6554 1.02413ZM12.1674 11.5726C12.1674 11.855 11.9377 12.0847 11.6554 12.0847H1.61895C1.3366 12.0847 1.10689 11.855 1.10689 11.5726V4.81339H12.1674V11.5726ZM12.1674 3.78926H1.10689V2.56031C1.10689 2.27796 1.3366 2.04825 1.61895 2.04825H2.23343V3.07238H3.25755V2.04825H10.0168V3.07238H11.0409V2.04825H11.6554C11.9377 2.04825 12.1674 2.27796 12.1674 2.56031V3.78926Z" fill="#777777"/>
<path d="M3.05269 5.88873H2.02856V6.91286H3.05269V5.88873Z" fill="#777777"/>
<path d="M5.10079 5.88873H4.07666V6.91286H5.10079V5.88873Z" fill="#777777"/>
<path d="M7.14913 5.88873H6.125V6.91286H7.14913V5.88873Z" fill="#777777"/>
<path d="M9.19747 5.88873H8.17334V6.91286H9.19747V5.88873Z" fill="#777777"/>
<path d="M11.2456 5.88873H10.2214V6.91286H11.2456V5.88873Z" fill="#777777"/>
<path d="M3.05269 7.93698H2.02856V8.96111H3.05269V7.93698Z" fill="#777777"/>
<path d="M5.10079 7.93698H4.07666V8.96111H5.10079V7.93698Z" fill="#777777"/>
<path d="M7.14913 7.93698H6.125V8.96111H7.14913V7.93698Z" fill="#777777"/>
<path d="M9.19747 7.93698H8.17334V8.96111H9.19747V7.93698Z" fill="#777777"/>
<path d="M3.05269 9.98523H2.02856V11.0094H3.05269V9.98523Z" fill="#777777"/>
<path d="M5.10079 9.98523H4.07666V11.0094H5.10079V9.98523Z" fill="#777777"/>
<path d="M7.14913 9.98523H6.125V11.0094H7.14913V9.98523Z" fill="#777777"/>
<path d="M9.19747 9.98523H8.17334V11.0094H9.19747V9.98523Z" fill="#777777"/>
<path d="M11.2456 7.93698H10.2214V8.96111H11.2456V7.93698Z" fill="#777777"/>
</g>
<defs>
<clipPath id="clip0">
<rect width="13.1088" height="13.1088" fill="white" transform="translate(0.0827637)"/>
</clipPath>
</defs>
</svg>
