<svg width="8" height="9" viewBox="0 0 8 9" fill="none" xmlns="http://www.w3.org/2000/svg">
<path d="M1.54193 1.70436H2.84918V1.46668C2.84918 1.07287 3.16842 0.753632 3.56222 0.753632H4.51295C4.90676 0.753632 5.22599 1.07287 5.22599 1.46668V1.70436H6.53324C6.8614 1.70436 7.12744 1.9704 7.12744 2.29856V2.77392C7.12744 2.9052 7.02103 3.0116 6.88976 3.0116H1.18541C1.05414 3.0116 0.947731 2.9052 0.947731 2.77392V2.29856C0.947731 1.9704 1.21377 1.70436 1.54193 1.70436ZM4.75063 1.46668C4.75063 1.33565 4.64397 1.22899 4.51295 1.22899H3.56222C3.4312 1.22899 3.32454 1.33565 3.32454 1.46668V1.70436H4.75063V1.46668Z" fill="#394C60"/>
<path d="M6.6767 3.487C6.71912 3.487 6.75291 3.52244 6.75089 3.56481L6.5548 7.68029C6.53668 8.06117 6.22383 8.35946 5.84265 8.35946H2.23317C1.85198 8.35946 1.53914 8.06117 1.52101 7.68029L1.32493 3.56481C1.32291 3.52244 1.3567 3.487 1.39911 3.487H6.6767ZM3.08718 4.0812C3.08718 3.94988 2.98082 3.84352 2.8495 3.84352C2.71818 3.84352 2.61182 3.94988 2.61182 4.0812V7.17106C2.61182 7.30238 2.71818 7.40874 2.8495 7.40874C2.98082 7.40874 3.08718 7.30238 3.08718 7.17106V4.0812ZM4.27559 4.0812C4.27559 3.94988 4.16923 3.84352 4.03791 3.84352C3.90659 3.84352 3.80023 3.94988 3.80023 4.0812V7.17106C3.80023 7.30238 3.90659 7.40874 4.03791 7.40874C4.16923 7.40874 4.27559 7.30238 4.27559 7.17106V4.0812ZM5.464 4.0812C5.464 3.94988 5.35763 3.84352 5.22631 3.84352C5.095 3.84352 4.98863 3.94988 4.98863 4.0812V7.17106C4.98863 7.30238 5.095 7.40874 5.22631 7.40874C5.35763 7.40874 5.464 7.30238 5.464 7.17106V4.0812Z" fill="#394C60"/>
</svg>
