<svg width="13" height="13" viewBox="0 0 13 13" fill="none" xmlns="http://www.w3.org/2000/svg">
<g clip-path="url(#clip0)">
<path d="M2.67528 2.18584H4.64053V1.82852C4.64053 1.23648 5.12046 0.756561 5.71249 0.756561H7.14176C7.73379 0.756561 8.21372 1.23648 8.21372 1.82852V2.18584H10.179C10.6723 2.18584 11.0723 2.58579 11.0723 3.07913V3.79377C11.0723 3.99112 10.9123 4.15109 10.7149 4.15109H2.1393C1.94195 4.15109 1.78198 3.99112 1.78198 3.79377V3.07913C1.78198 2.58579 2.18193 2.18584 2.67528 2.18584ZM7.49908 1.82852C7.49908 1.63155 7.33873 1.4712 7.14176 1.4712H5.71249C5.51552 1.4712 5.35517 1.63155 5.35517 1.82852V2.18584H7.49908V1.82852Z" fill="#394C60"/>
<path d="M10.3942 4.86572C10.458 4.86572 10.5088 4.91901 10.5057 4.9827L10.2109 11.1697C10.1837 11.7423 9.71338 12.1908 9.14033 12.1908H3.714C3.14095 12.1908 2.67063 11.7423 2.64338 11.1697L2.34859 4.9827C2.34556 4.91901 2.39636 4.86572 2.46012 4.86572H10.3942ZM4.99789 5.75902C4.99789 5.5616 4.83799 5.4017 4.64057 5.4017C4.44315 5.4017 4.28325 5.5616 4.28325 5.75902V10.4042C4.28325 10.6016 4.44315 10.7615 4.64057 10.7615C4.83799 10.7615 4.99789 10.6016 4.99789 10.4042V5.75902ZM6.78448 5.75902C6.78448 5.5616 6.62458 5.4017 6.42716 5.4017C6.22974 5.4017 6.06984 5.5616 6.06984 5.75902V10.4042C6.06984 10.6016 6.22974 10.7615 6.42716 10.7615C6.62458 10.7615 6.78448 10.6016 6.78448 10.4042V5.75902ZM8.57107 5.75902C8.57107 5.5616 8.41117 5.4017 8.21375 5.4017C8.01634 5.4017 7.85644 5.5616 7.85644 5.75902V10.4042C7.85644 10.6016 8.01634 10.7615 8.21375 10.7615C8.41117 10.7615 8.57107 10.6016 8.57107 10.4042V5.75902Z" fill="#394C60"/>
</g>
<defs>
<clipPath id="clip0">
<rect width="11.4342" height="11.4342" fill="white" transform="matrix(-1 0 0 1 12.1445 0.756561)"/>
</clipPath>
</defs>
</svg>
