<svg width="12" height="13" viewBox="0 0 12 13" fill="none" xmlns="http://www.w3.org/2000/svg">
<g clip-path="url(#clip0)">
<path d="M9.20341 6.49566C8.93996 6.49566 8.72701 6.70913 8.72701 6.97206V10.7835C8.72701 11.046 8.51355 11.2599 8.25062 11.2599H1.58064C1.31763 11.2599 1.10425 11.046 1.10425 10.7835V4.11351C1.10425 3.85102 1.31763 3.63711 1.58064 3.63711H5.39207C5.65552 3.63711 5.86846 3.42365 5.86846 3.16072C5.86846 2.8977 5.65552 2.68423 5.39207 2.68423H1.58064C0.792639 2.68423 0.151367 3.32551 0.151367 4.11351V10.7835C0.151367 11.5715 0.792639 12.2128 1.58064 12.2128H8.25062C9.03862 12.2128 9.67989 11.5715 9.67989 10.7835V6.97206C9.67989 6.7086 9.46686 6.49566 9.20341 6.49566Z" fill="white"/>
<path d="M4.61813 6.06164C4.58481 6.09497 4.56239 6.13736 4.55288 6.18307L4.21606 7.86778C4.20036 7.94585 4.22514 8.02637 4.28132 8.08307C4.32659 8.12835 4.38757 8.1526 4.45003 8.1526C4.46521 8.1526 4.481 8.15121 4.4967 8.14789L6.18088 7.81107C6.22755 7.80148 6.26995 7.77914 6.30283 7.74573L10.0723 3.97627L8.38812 2.29218L4.61813 6.06164Z" fill="white"/>
<path d="M11.2366 1.12733C10.7721 0.662798 10.0165 0.662798 9.5524 1.12733L8.89307 1.78666L10.5772 3.47084L11.2366 2.81142C11.4615 2.58705 11.5853 2.28783 11.5853 1.96959C11.5853 1.65136 11.4615 1.35214 11.2366 1.12733Z" fill="white"/>
</g>
<defs>
<clipPath id="clip0">
<rect width="11.4342" height="11.4342" fill="white" transform="translate(0.151367 0.756561)"/>
</clipPath>
</defs>
</svg>
