<svg width="9" height="9" viewBox="0 0 9 9" fill="none" xmlns="http://www.w3.org/2000/svg">
<g clip-path="url(#clip0)">
<path d="M6.77514 4.57117C6.5999 4.57117 6.45825 4.71317 6.45825 4.88806V7.42335C6.45825 7.59795 6.31626 7.74024 6.14137 7.74024H1.70463C1.52968 7.74024 1.38774 7.59795 1.38774 7.42335V2.98661C1.38774 2.81201 1.52968 2.66972 1.70463 2.66972H4.23992C4.41516 2.66972 4.55681 2.52773 4.55681 2.35284C4.55681 2.17788 4.41516 2.03589 4.23992 2.03589H1.70463C1.18047 2.03589 0.753906 2.46245 0.753906 2.98661V7.42335C0.753906 7.94751 1.18047 8.37407 1.70463 8.37407H6.14137C6.66553 8.37407 7.09209 7.94751 7.09209 7.42335V4.88806C7.09209 4.71282 6.95039 4.57117 6.77514 4.57117Z" fill="#38A3FF"/>
<path d="M3.72512 4.28249C3.70296 4.30466 3.68804 4.33286 3.68172 4.36326L3.45767 5.48389C3.44723 5.53583 3.46371 5.58939 3.50108 5.62711C3.5312 5.65722 3.57176 5.67335 3.6133 5.67335C3.6234 5.67335 3.6339 5.67243 3.64435 5.67022L4.76463 5.44618C4.79568 5.43979 4.82388 5.42494 4.84575 5.40271L7.35313 2.89534L6.23285 1.77512L3.72512 4.28249Z" fill="#38A3FF"/>
<path d="M8.12721 1.00027C7.81827 0.691275 7.31564 0.691275 7.00693 1.00027L6.56836 1.43884L7.68864 2.55913L8.12721 2.1205C8.27681 1.97125 8.35921 1.77221 8.35921 1.56053C8.35921 1.34884 8.27681 1.14981 8.12721 1.00027Z" fill="#38A3FF"/>
</g>
<defs>
<clipPath id="clip0">
<rect width="7.6058" height="7.6058" fill="white" transform="translate(0.753906 0.753632)"/>
</clipPath>
</defs>
</svg>
