<svg width="12" height="12" viewBox="0 0 12 12" fill="none" xmlns="http://www.w3.org/2000/svg">
<g clip-path="url(#clip0)">
<path d="M4.59685 5.92801C4.76775 6.17532 4.71666 5.96924 4.71666 10.8988C4.71666 11.3399 5.21995 11.5924 5.57466 11.3285C7.09041 10.1857 7.39325 10.0868 7.39325 9.55223C7.39325 5.95996 7.35138 6.16198 7.51306 5.92801L9.97447 2.57761H2.13547L4.59685 5.92801Z" fill="white"/>
<path d="M10.9042 0.832755C10.8163 0.664298 10.6438 0.55957 10.4539 0.55957H1.656C1.2459 0.55957 1.0046 1.02218 1.23985 1.35831C1.24178 1.36154 1.21314 1.32234 1.66726 1.94036H10.4426C10.8296 1.41369 11.0883 1.18613 10.9042 0.832755Z" fill="white"/>
</g>
<defs>
<clipPath id="clip0">
<rect width="10.8764" height="10.8764" fill="white" transform="translate(0.617981 0.55957)"/>
</clipPath>
</defs>
</svg>
