<svg width="11" height="11" viewBox="0 0 11 11" fill="none" xmlns="http://www.w3.org/2000/svg">
<g clip-path="url(#clip0)">
<path d="M2.72161 5.8902L7.17174 10.3402C7.27466 10.4433 7.41206 10.5 7.55856 10.5C7.70507 10.5 7.84246 10.4433 7.94539 10.3402L8.27311 10.0126C8.48636 9.79911 8.48636 9.45212 8.27311 9.23895L4.53623 5.50207L8.27726 1.76105C8.38018 1.65804 8.43701 1.52072 8.43701 1.3743C8.43701 1.22772 8.38018 1.0904 8.27726 0.987311L7.94954 0.659754C7.84653 0.556746 7.70921 0.499999 7.56271 0.499999C7.41621 0.499999 7.27881 0.556746 7.17588 0.659754L2.72161 5.11386C2.61844 5.2172 2.56178 5.35516 2.5621 5.50183C2.56178 5.64906 2.61844 5.78695 2.72161 5.8902Z" fill="#38A3FF"/>
</g>
<defs>
<clipPath id="clip0">
<rect width="10" height="10" fill="white" transform="translate(10.5 10.5) rotate(-180)"/>
</clipPath>
</defs>
</svg>
