<svg width="13" height="13" viewBox="0 0 13 13" fill="none" xmlns="http://www.w3.org/2000/svg">
<g clip-path="url(#clip0)">
<path d="M6.34303 0C4.05414 0 2.19189 1.86224 2.19189 4.15113C2.19189 4.83826 2.36369 5.51954 2.69027 6.12382L6.11602 12.3196C6.16163 12.4022 6.24853 12.4534 6.34303 12.4534C6.43752 12.4534 6.52443 12.4022 6.57003 12.3196L9.99704 6.12178C10.3224 5.51954 10.4942 4.83823 10.4942 4.15111C10.4942 1.86224 8.63192 0 6.34303 0ZM6.34303 6.22668C5.19858 6.22668 4.26747 5.29558 4.26747 4.15113C4.26747 3.00669 5.19858 2.07558 6.34303 2.07558C7.48747 2.07558 8.41858 3.00669 8.41858 4.15113C8.41858 5.29558 7.48747 6.22668 6.34303 6.22668Z" fill="#777777"/>
</g>
<defs>
<clipPath id="clip0">
<rect width="12.4534" height="12.4534" fill="white" transform="translate(0.116455)"/>
</clipPath>
</defs>
</svg>
