<svg width="15" height="15" viewBox="0 0 15 15" fill="none" xmlns="http://www.w3.org/2000/svg">
<g clip-path="url(#clip0)">
<path d="M8.93325 7.77803C8.61375 7.77803 8.35551 8.03691 8.35551 8.35577V10.6669C8.35551 10.9853 8.09663 11.2447 7.77767 11.2447H6.04435V2.57808C6.04435 2.08466 5.73004 1.64382 5.25746 1.47974L5.08639 1.4225H7.77767C8.09663 1.4225 8.35551 1.68191 8.35551 2.00035V3.73366C8.35551 4.05252 8.61375 4.3114 8.93325 4.3114C9.25274 4.3114 9.51098 4.05252 9.51098 3.73366V2.00035C9.51098 1.04472 8.7333 0.267029 7.77767 0.267029H1.56666C1.54465 0.267029 1.52624 0.276868 1.50487 0.279724C1.47705 0.277397 1.4505 0.267029 1.42225 0.267029C0.784951 0.267029 0.26667 0.785204 0.26667 1.4225V11.8224C0.26667 12.3158 0.580982 12.7567 1.05356 12.9207L4.53066 14.0798C4.64852 14.1162 4.76574 14.1336 4.88888 14.1336C5.52618 14.1336 6.04435 13.6153 6.04435 12.978V12.4002H7.77767C8.7333 12.4002 9.51098 11.6226 9.51098 10.6669V8.35577C9.51098 8.03691 9.25274 7.77803 8.93325 7.77803Z" fill="white"/>
<path d="M13.9645 5.63607L11.6534 3.32502C11.4882 3.15977 11.2397 3.11005 11.0237 3.19955C10.8082 3.28916 10.6672 3.5 10.6672 3.73349V5.46681H8.35611C8.03714 5.46681 7.77827 5.72558 7.77827 6.04454C7.77827 6.36351 8.03714 6.62228 8.35611 6.62228H10.6672V8.35559C10.6672 8.58908 10.8082 8.79992 11.0237 8.88953C11.2397 8.97903 11.4882 8.92931 11.6534 8.76417L13.9645 6.45301C14.1904 6.22714 14.1904 5.86194 13.9645 5.63607Z" fill="white"/>
</g>
<defs>
<clipPath id="clip0">
<rect width="13.8667" height="13.8667" fill="white" transform="translate(0.266663 0.266663)"/>
</clipPath>
</defs>
</svg>
