<svg width="11" height="11" viewBox="0 0 11 11" fill="none" xmlns="http://www.w3.org/2000/svg">
<g clip-path="url(#clip0)">
<path d="M9.72833 6.88354C9.08628 6.88354 8.45585 6.78312 7.85844 6.5857C7.56571 6.48586 7.20584 6.57745 7.02718 6.76095L5.84802 7.65109C4.48052 6.92112 3.63817 6.07905 2.91817 4.72182L3.78212 3.57338C4.00658 3.34922 4.0871 3.02177 3.99064 2.71453C3.79237 2.11399 3.69165 1.48386 3.69165 0.841531C3.69167 0.377506 3.31417 0 2.85017 0H0.924267C0.46027 0 0.0827637 0.377506 0.0827637 0.841504C0.0827637 6.16013 4.40971 10.487 9.72833 10.487C10.1923 10.487 10.5698 10.1095 10.5698 9.64554V7.72502C10.5698 7.26105 10.1923 6.88354 9.72833 6.88354Z" fill="#777777"/>
</g>
<defs>
<clipPath id="clip0">
<rect width="10.487" height="10.487" fill="white" transform="translate(0.0827637)"/>
</clipPath>
</defs>
</svg>
