<svg width="10" height="11" viewBox="0 0 10 11" fill="none" xmlns="http://www.w3.org/2000/svg">
<g clip-path="url(#clip0)">
<path d="M7.77839 5.8902L3.32826 10.3402C3.22534 10.4433 3.08794 10.5 2.94144 10.5C2.79493 10.5 2.65754 10.4433 2.55461 10.3402L2.22689 10.0126C2.01364 9.79911 2.01364 9.45212 2.22689 9.23895L5.96377 5.50207L2.22274 1.76105C2.11982 1.65804 2.06299 1.52072 2.06299 1.3743C2.06299 1.22772 2.11982 1.0904 2.22274 0.987311L2.55046 0.659754C2.65347 0.556746 2.79079 0.499999 2.93729 0.499999C3.08379 0.499999 3.22119 0.556746 3.32412 0.659754L7.77839 5.11386C7.88156 5.2172 7.93822 5.35516 7.9379 5.50183C7.93822 5.64906 7.88156 5.78695 7.77839 5.8902Z" fill="#38A3FF"/>
</g>
<defs>
<clipPath id="clip0">
<rect width="10" height="10" fill="white" transform="matrix(1 -8.74228e-08 -8.74228e-08 -1 0.000488281 10.5)"/>
</clipPath>
</defs>
</svg>
