<svg width="23" height="23" viewBox="0 0 23 23" fill="none" xmlns="http://www.w3.org/2000/svg">
<path d="M20.4844 3.59375H2.51562C1.12853 3.59375 0 4.72228 0 6.10938V16.8906C0 18.2777 1.12853 19.4062 2.51562 19.4062H20.4844C21.8715 19.4062 23 18.2777 23 16.8906V6.10938C23 4.72228 21.8715 3.59375 20.4844 3.59375ZM2.51562 5.03125H20.4844C21.0788 5.03125 21.5625 5.51492 21.5625 6.10938V7.54688H1.4375V6.10938C1.4375 5.51492 1.92117 5.03125 2.51562 5.03125ZM20.4844 17.9688H2.51562C1.92117 17.9688 1.4375 17.4851 1.4375 16.8906V8.98438H21.5625V16.8906C21.5625 17.4851 21.0788 17.9688 20.4844 17.9688Z" fill="black"/>
<path d="M5.03125 15.8125H4.3125C3.91557 15.8125 3.59375 15.4907 3.59375 15.0938V14.375C3.59375 13.9781 3.91557 13.6562 4.3125 13.6562H5.03125C5.42818 13.6562 5.75 13.9781 5.75 14.375V15.0938C5.75 15.4907 5.42818 15.8125 5.03125 15.8125Z" fill="black"/>
</svg>
